<svg width="169" height="170" viewBox="0 0 169 170" fill="none" xmlns="http://www.w3.org/2000/svg">
<g id="firefox" opacity="0.9" filter="url(#filter0_ddd_356_37804)">
<path id="vector" d="M93.837 66.7097C93.3992 65.6538 92.5121 64.5138 91.8157 64.1537C92.3826 65.2676 92.7104 66.3849 92.8358 67.2185C92.8358 67.2185 92.8358 67.2244 92.8379 67.2353C91.6987 64.389 89.7668 63.2411 88.1891 60.7423C88.1091 60.6162 88.0294 60.4902 87.9514 60.3553C87.9074 60.2793 87.8718 60.2104 87.8407 60.1452C87.7754 60.0189 87.7248 59.8854 87.6902 59.7473C87.6905 59.7408 87.6883 59.7343 87.6841 59.7293C87.68 59.7242 87.6741 59.7209 87.6676 59.72C87.6614 59.7183 87.6549 59.7183 87.6487 59.72C87.647 59.7208 87.6455 59.7218 87.6441 59.7229C87.6416 59.7229 87.6391 59.7259 87.6366 59.7267L87.6408 59.7213C85.1097 61.207 84.2511 63.9554 84.1722 65.3306C83.1608 65.4 82.1937 65.7732 81.3972 66.4017C81.3139 66.3311 81.2269 66.2652 81.1364 66.2042C80.9068 65.3988 80.8971 64.5465 81.1083 63.7361C80.0732 64.2088 79.2682 64.9546 78.6829 65.6147H78.6783C78.2787 65.1075 78.3068 63.4348 78.3295 63.0856C78.3249 63.0638 78.0318 63.2382 77.9941 63.2646C77.6415 63.5167 77.3119 63.7996 77.0092 64.11C76.6648 64.46 76.3501 64.8382 76.0684 65.2407C75.4204 66.1611 74.9609 67.201 74.7163 68.3004C74.7117 68.3223 74.7075 68.345 74.7029 68.3673C74.684 68.4559 74.6157 68.9009 74.6035 68.9975V69.0198C74.5144 69.4796 74.4589 69.9452 74.4375 70.4131V70.4648C74.4375 76.0414 78.9487 80.5625 84.5131 80.5625C89.4968 80.5625 93.6345 76.9364 94.4449 72.1732C94.4616 72.0442 94.4755 71.914 94.4906 71.7837C94.691 70.0517 94.4684 68.2315 93.837 66.7097ZM82.2235 74.614C82.2705 74.6363 82.3149 74.6611 82.3631 74.6829L82.3698 74.6871C82.3216 74.6636 82.2726 74.6392 82.2239 74.614H82.2235ZM92.8387 67.2399V67.2303V67.2412V67.2399Z" fill="url(#paint0_linear_356_37804)"/>
<path id="vector_2" d="M93.8372 66.7097C93.3995 65.6538 92.5123 64.5139 91.8159 64.1538C92.3828 65.2677 92.7106 66.3849 92.836 67.2186V67.2392C93.7869 69.8224 93.2686 72.4494 92.5224 74.0544C91.3677 76.5377 88.5725 79.0831 84.1968 78.9592C79.473 78.8247 75.3085 75.3074 74.5308 70.7044C74.3891 69.9779 74.5308 69.6094 74.6021 69.0199C74.5153 69.4741 74.4821 69.6056 74.439 70.4132V70.4649C74.439 76.0415 78.9502 80.5626 84.5146 80.5626C89.4983 80.5626 93.6359 76.9364 94.4463 72.1733C94.4631 72.0443 94.4769 71.9141 94.492 71.7838C94.6912 70.0518 94.4686 68.2316 93.8372 66.7097V66.7097Z" fill="url(#paint1_radial_356_37804)"/>
<path id="vector_3" d="M93.8372 66.7097C93.3995 65.6538 92.5123 64.5139 91.8159 64.1538C92.3828 65.2677 92.7106 66.3849 92.836 67.2186V67.2392C93.7869 69.8224 93.2686 72.4494 92.5224 74.0544C91.3677 76.5377 88.5725 79.0831 84.1968 78.9592C79.473 78.8247 75.3085 75.3074 74.5308 70.7044C74.3891 69.9779 74.5308 69.6094 74.6021 69.0199C74.5153 69.4741 74.4821 69.6056 74.439 70.4132V70.4649C74.439 76.0415 78.9502 80.5626 84.5146 80.5626C89.4983 80.5626 93.6359 76.9364 94.4463 72.1733C94.4631 72.0443 94.4769 71.9141 94.492 71.7838C94.6912 70.0518 94.4686 68.2316 93.8372 66.7097V66.7097Z" fill="url(#paint2_radial_356_37804)"/>
<path id="vector_4" d="M88.9405 67.8963C88.9627 67.9118 88.9824 67.9274 89.0034 67.9429C88.7505 67.493 88.4355 67.081 88.0676 66.7194C84.9358 63.5807 87.2467 59.9134 87.6362 59.7268L87.6404 59.7213C85.1093 61.2071 84.2507 63.9555 84.1719 65.3307C84.2893 65.3227 84.4062 65.3126 84.5257 65.3126C86.4145 65.3126 88.0597 66.3538 88.9405 67.8963Z" fill="url(#paint3_radial_356_37804)"/>
<path id="vector_5" d="M84.5316 68.5232C84.5152 68.7753 83.6297 69.6409 83.3199 69.6409C80.4547 69.6409 79.9897 71.3779 79.9897 71.3779C80.1155 72.8409 81.1326 74.0456 82.3632 74.683C82.4193 74.712 82.4759 74.738 82.5309 74.7641C82.6294 74.8061 82.7283 74.8481 82.8269 74.8855C83.2489 75.0347 83.6908 75.1197 84.1379 75.1376C89.1597 75.3738 90.1333 69.1199 86.5088 67.3039C87.4366 67.1421 88.4 67.5165 88.938 67.895C88.0575 66.3526 86.4119 65.3114 84.5232 65.3114C84.4037 65.3114 84.2867 65.3215 84.1693 65.3294C83.1586 65.3996 82.1925 65.7733 81.3968 66.4017C81.5506 66.5324 81.7242 66.7064 82.0894 67.0669C82.7745 67.7442 84.5278 68.4413 84.5316 68.5232V68.5232Z" fill="url(#paint4_radial_356_37804)"/>
<path id="vector_6" d="M84.5316 68.5232C84.5152 68.7753 83.6297 69.6409 83.3199 69.6409C80.4547 69.6409 79.9897 71.3779 79.9897 71.3779C80.1155 72.8409 81.1326 74.0456 82.3632 74.683C82.4193 74.712 82.4759 74.738 82.5309 74.7641C82.6294 74.8061 82.7283 74.8481 82.8269 74.8855C83.2489 75.0347 83.6908 75.1197 84.1379 75.1376C89.1597 75.3738 90.1333 69.1199 86.5088 67.3039C87.4366 67.1421 88.4 67.5165 88.938 67.895C88.0575 66.3526 86.4119 65.3114 84.5232 65.3114C84.4037 65.3114 84.2867 65.3215 84.1693 65.3294C83.1586 65.3996 82.1925 65.7733 81.3968 66.4017C81.5506 66.5324 81.7242 66.7064 82.0894 67.0669C82.7745 67.7442 84.5278 68.4413 84.5316 68.5232V68.5232Z" fill="url(#paint5_radial_356_37804)"/>
<path id="vector_7" d="M80.9289 66.066C81.0107 66.1189 81.0778 66.1634 81.1386 66.2042C80.909 65.3988 80.8993 64.5465 81.1105 63.7361C80.0753 64.2088 79.2703 64.9546 78.6851 65.6147C78.7324 65.6134 80.194 65.587 80.9289 66.066V66.066Z" fill="url(#paint6_radial_356_37804)"/>
<path id="vector_8" d="M74.5309 70.7042C75.3087 75.3073 79.4731 78.8246 84.2003 78.959C88.5761 79.083 91.3696 76.5376 92.5259 74.0543C93.2722 72.4488 93.7904 69.8223 92.8395 67.239V67.2197C92.8395 67.2222 92.8395 67.2256 92.8416 67.2365C93.1988 69.5756 92.0119 71.8417 90.1562 73.374C90.1543 73.3783 90.1525 73.3827 90.1508 73.3871C86.5347 76.338 83.0746 75.1674 82.374 74.6896C82.3253 74.6661 82.2763 74.6417 82.2277 74.6165C80.1192 73.6081 79.2484 71.6816 79.435 70.0307C77.6552 70.0307 77.0482 68.5256 77.0482 68.5256C77.0482 68.5256 78.6464 67.3836 80.7527 68.3769C82.7035 69.2971 84.5357 68.526 84.5357 68.5256C84.5319 68.4437 82.7786 67.7445 82.0948 67.0693C81.7296 66.7088 81.556 66.5348 81.4021 66.4041C81.3189 66.3336 81.2318 66.2677 81.1414 66.2067C81.0814 66.1646 81.0156 66.1226 80.9317 66.0684C80.1968 65.5894 78.7352 65.6159 78.687 65.6172H78.6824C78.2829 65.11 78.311 63.4373 78.3336 63.0881C78.329 63.0663 78.0359 63.2406 77.9982 63.2671C77.6456 63.5192 77.3161 63.8021 77.0134 64.1125C76.6689 64.4625 76.3542 64.8407 76.0725 65.2432C75.4245 66.1636 74.965 67.2035 74.7204 68.3029C74.7125 68.3223 74.354 69.8908 74.5309 70.7042V70.7042Z" fill="url(#paint7_radial_356_37804)"/>
<path id="vector_9" d="M88.0673 66.7193C88.4351 67.081 88.7502 67.4929 89.003 67.9429C89.0554 67.9823 89.1058 68.0244 89.154 68.0689C91.4381 70.1765 90.2432 73.1602 90.1522 73.3745C92.0079 71.8421 93.1948 69.5761 92.8376 67.237C91.6984 64.389 89.7665 63.2411 88.1888 60.7423C88.1088 60.6162 88.0291 60.4902 87.9511 60.3553C87.9071 60.2793 87.8715 60.2104 87.8404 60.1452C87.7751 60.0189 87.7245 59.8854 87.6899 59.7473C87.6902 59.7408 87.688 59.7343 87.6838 59.7293C87.6797 59.7242 87.6738 59.7209 87.6673 59.72C87.6611 59.7183 87.6546 59.7183 87.6484 59.72C87.6467 59.7208 87.6452 59.7218 87.6438 59.7229C87.6413 59.7229 87.6388 59.7259 87.6363 59.7267C87.2463 59.9133 84.9354 63.5806 88.0673 66.7193V66.7193Z" fill="url(#paint8_radial_356_37804)"/>
<path id="vector_10" d="M89.1538 68.0669C89.1057 68.0224 89.0553 67.9803 89.0029 67.9409C88.9824 67.9253 88.961 67.9098 88.94 67.8942C88.4021 67.5161 87.4387 67.1413 86.5108 67.303C90.1349 69.119 89.1618 75.373 84.1399 75.1368C83.6928 75.1189 83.2509 75.0339 82.8289 74.8847C82.7304 74.8477 82.6315 74.807 82.5329 74.7633C82.4759 74.7372 82.4193 74.7112 82.3652 74.6822L82.3719 74.6864C83.0725 75.1654 86.5326 76.336 90.1487 73.3838C90.1487 73.3838 90.1508 73.3784 90.1542 73.3708C90.2439 73.1603 91.4388 70.1766 89.1538 68.0669Z" fill="url(#paint9_radial_356_37804)"/>
<path id="vector_11" d="M79.9896 71.3779C79.9896 71.3779 80.4546 69.6408 83.3198 69.6408C83.6296 69.6408 84.5151 68.7744 84.5315 68.5232C84.5478 68.2719 82.6993 69.2946 80.7485 68.3744C78.6422 67.3811 77.0439 68.5232 77.0439 68.5232C77.0439 68.5232 77.651 70.0282 79.4308 70.0282C79.2442 71.6791 80.115 73.604 82.2235 74.6141C82.2704 74.6363 82.3148 74.6611 82.3631 74.683C81.1325 74.0468 80.1167 72.8409 79.9896 71.3779Z" fill="url(#paint10_radial_356_37804)"/>
<path id="vector_12" d="M93.837 66.7097C93.3992 65.6538 92.5121 64.5138 91.8157 64.1537C92.3826 65.2676 92.7104 66.3849 92.8358 67.2185C92.8358 67.2185 92.8358 67.2244 92.8379 67.2353C91.6987 64.389 89.7668 63.2411 88.1891 60.7423C88.1091 60.6162 88.0294 60.4902 87.9514 60.3553C87.9074 60.2793 87.8718 60.2104 87.8407 60.1452C87.7754 60.0189 87.7248 59.8854 87.6902 59.7473C87.6905 59.7408 87.6883 59.7343 87.6841 59.7293C87.68 59.7242 87.6741 59.7209 87.6676 59.72C87.6614 59.7183 87.6549 59.7183 87.6487 59.72C87.647 59.7208 87.6455 59.7218 87.6441 59.7229C87.6416 59.7229 87.6391 59.7259 87.6366 59.7267L87.6408 59.7213C85.1097 61.207 84.2511 63.9554 84.1722 65.3306C84.2896 65.3227 84.4066 65.3126 84.5261 65.3126C86.4148 65.3126 88.06 66.3538 88.9409 67.8962C88.403 67.5181 87.4395 67.1433 86.5117 67.305C90.1358 69.1211 89.1627 75.375 84.1408 75.1388C83.6937 75.1209 83.2518 75.0359 82.8298 74.8867C82.7312 74.8498 82.6323 74.809 82.5338 74.7653C82.4768 74.7392 82.4202 74.7132 82.3661 74.6842L82.3728 74.6884C82.3241 74.6649 82.2751 74.6405 82.2265 74.6153C82.2734 74.6376 82.3179 74.6624 82.3661 74.6842C81.133 74.0468 80.1172 72.8409 79.9901 71.3778C79.9901 71.3778 80.4551 69.6408 83.3203 69.6408C83.6301 69.6408 84.5156 68.7744 84.532 68.5231C84.5282 68.4412 82.7749 67.742 82.091 67.0668C81.7259 66.7063 81.5523 66.5323 81.3984 66.4017C81.3152 66.3311 81.2281 66.2652 81.1377 66.2042C80.9081 65.3988 80.8984 64.5465 81.1096 63.7361C80.0744 64.2088 79.2694 64.9546 78.6842 65.6147H78.6795C78.28 65.1075 78.3081 63.4348 78.3307 63.0856C78.3261 63.0638 78.0331 63.2382 77.9953 63.2646C77.6428 63.5167 77.3132 63.7996 77.0105 64.11C76.666 64.46 76.3513 64.8382 76.0697 65.2407C75.4217 66.1611 74.9621 67.201 74.7176 68.3004C74.713 68.3223 74.7088 68.345 74.7041 68.3673C74.6853 68.4559 74.5998 68.9072 74.588 69.0038C74.588 69.0114 74.588 68.9967 74.588 69.0038C74.5095 69.4701 74.4592 69.9407 74.4375 70.4131V70.4648C74.4375 76.0414 78.9487 80.5625 84.5131 80.5625C89.4968 80.5625 93.6345 76.9364 94.4449 72.1732C94.4616 72.0442 94.4755 71.914 94.4906 71.7837C94.691 70.0517 94.4684 68.2315 93.837 66.7097ZM92.8374 67.2282V67.2391V67.2282Z" fill="url(#paint11_linear_356_37804)"/>
</g>
<defs>
<filter id="filter0_ddd_356_37804" x="-1.24242" y="-0.393939" width="171.485" height="171.485" filterUnits="userSpaceOnUse" color-interpolation-filters="sRGB">
<feFlood flood-opacity="0" result="BackgroundImageFix"/>
<feColorMatrix in="SourceAlpha" type="matrix" values="0 0 0 0 0 0 0 0 0 0 0 0 0 0 0 0 0 0 127 0" result="hardAlpha"/>
<feOffset dy="14.8485"/>
<feGaussianBlur stdDeviation="37.1212"/>
<feColorMatrix type="matrix" values="0 0 0 0 0 0 0 0 0 0 0 0 0 0 0 0 0 0 0.2 0"/>
<feBlend mode="normal" in2="BackgroundImageFix" result="effect1_dropShadow_356_37804"/>
<feColorMatrix in="SourceAlpha" type="matrix" values="0 0 0 0 0 0 0 0 0 0 0 0 0 0 0 0 0 0 127 0" result="hardAlpha"/>
<feOffset dy="29.697"/>
<feGaussianBlur stdDeviation="22.2727"/>
<feColorMatrix type="matrix" values="0 0 0 0 0 0 0 0 0 0 0 0 0 0 0 0 0 0 0.3 0"/>
<feBlend mode="normal" in2="effect1_dropShadow_356_37804" result="effect2_dropShadow_356_37804"/>
<feColorMatrix in="SourceAlpha" type="matrix" values="0 0 0 0 0 0 0 0 0 0 0 0 0 0 0 0 0 0 127 0" result="hardAlpha"/>
<feOffset/>
<feGaussianBlur stdDeviation="0.742424"/>
<feColorMatrix type="matrix" values="0 0 0 0 0 0 0 0 0 0 0 0 0 0 0 0 0 0 0.7 0"/>
<feBlend mode="normal" in2="effect2_dropShadow_356_37804" result="effect3_dropShadow_356_37804"/>
<feBlend mode="normal" in="SourceGraphic" in2="effect3_dropShadow_356_37804" result="shape"/>
</filter>
<linearGradient id="paint0_linear_356_37804" x1="92.5033" y1="62.9478" x2="75.7413" y2="79.0846" gradientUnits="userSpaceOnUse">
<stop offset="0.05" stop-color="#FFF44F"/>
<stop offset="0.11" stop-color="#FFE847"/>
<stop offset="0.22" stop-color="#FFC830"/>
<stop offset="0.37" stop-color="#FF980E"/>
<stop offset="0.4" stop-color="#FF8B16"/>
<stop offset="0.46" stop-color="#FF672A"/>
<stop offset="0.53" stop-color="#FF3647"/>
<stop offset="0.7" stop-color="#E31587"/>
</linearGradient>
<radialGradient id="paint1_radial_356_37804" cx="0" cy="0" r="1" gradientUnits="userSpaceOnUse" gradientTransform="translate(91.7304 62.0323) scale(21.0052 21.0513)">
<stop offset="0.13" stop-color="#FFBD4F"/>
<stop offset="0.19" stop-color="#FFAC31"/>
<stop offset="0.25" stop-color="#FF9D17"/>
<stop offset="0.28" stop-color="#FF980E"/>
<stop offset="0.4" stop-color="#FF563B"/>
<stop offset="0.47" stop-color="#FF3750"/>
<stop offset="0.71" stop-color="#F5156C"/>
<stop offset="0.78" stop-color="#EB0878"/>
<stop offset="0.86" stop-color="#E50080"/>
</radialGradient>
<radialGradient id="paint2_radial_356_37804" cx="0" cy="0" r="1" gradientUnits="userSpaceOnUse" gradientTransform="translate(84.0551 70.6384) scale(21.0052 21.0513)">
<stop offset="0.3" stop-color="#960E18"/>
<stop offset="0.35" stop-color="#B11927" stop-opacity="0.74"/>
<stop offset="0.43" stop-color="#DB293D" stop-opacity="0.34"/>
<stop offset="0.5" stop-color="#F5334B" stop-opacity="0.09"/>
<stop offset="0.53" stop-color="#FF3750" stop-opacity="0"/>
</radialGradient>
<radialGradient id="paint3_radial_356_37804" cx="0" cy="0" r="1" gradientUnits="userSpaceOnUse" gradientTransform="translate(86.5876 57.2549) scale(15.2174 15.2508)">
<stop offset="0.13" stop-color="#FFF44F"/>
<stop offset="0.25" stop-color="#FFDC3E"/>
<stop offset="0.51" stop-color="#FF9D12"/>
<stop offset="0.53" stop-color="#FF980E"/>
</radialGradient>
<radialGradient id="paint4_radial_356_37804" cx="0" cy="0" r="1" gradientUnits="userSpaceOnUse" gradientTransform="translate(81.7313 76.1372) scale(10.0014 10.0233)">
<stop offset="0.35" stop-color="#3A8EE6"/>
<stop offset="0.47" stop-color="#5C79F0"/>
<stop offset="0.67" stop-color="#9059FF"/>
<stop offset="1" stop-color="#C139E6"/>
</radialGradient>
<radialGradient id="paint5_radial_356_37804" cx="0" cy="0" r="1" gradientUnits="userSpaceOnUse" gradientTransform="translate(84.3561 68.1365) rotate(-13.9265) scale(5.29946 6.23768)">
<stop offset="0.21" stop-color="#9059FF" stop-opacity="0"/>
<stop offset="0.28" stop-color="#8C4FF3" stop-opacity="0.06"/>
<stop offset="0.75" stop-color="#7716A8" stop-opacity="0.45"/>
<stop offset="0.97" stop-color="#6E008B" stop-opacity="0.6"/>
</radialGradient>
<radialGradient id="paint6_radial_356_37804" cx="0" cy="0" r="1" gradientUnits="userSpaceOnUse" gradientTransform="translate(83.7895 61.1709) scale(7.19529 7.21108)">
<stop stop-color="#FFE226"/>
<stop offset="0.12" stop-color="#FFDB27"/>
<stop offset="0.3" stop-color="#FFC82A"/>
<stop offset="0.5" stop-color="#FFA930"/>
<stop offset="0.73" stop-color="#FF7E37"/>
<stop offset="0.79" stop-color="#FF7139"/>
</radialGradient>
<radialGradient id="paint7_radial_356_37804" cx="0" cy="0" r="1" gradientUnits="userSpaceOnUse" gradientTransform="translate(89.4456 56.5972) scale(30.6984 30.7658)">
<stop offset="0.11" stop-color="#FFF44F"/>
<stop offset="0.46" stop-color="#FF980E"/>
<stop offset="0.62" stop-color="#FF5634"/>
<stop offset="0.72" stop-color="#FF3647"/>
<stop offset="0.9" stop-color="#E31587"/>
</radialGradient>
<radialGradient id="paint8_radial_356_37804" cx="0" cy="0" r="1" gradientUnits="userSpaceOnUse" gradientTransform="translate(86.4776 59.9586) rotate(84.2447) scale(22.4247 14.7015)">
<stop stop-color="#FFF44F"/>
<stop offset="0.06" stop-color="#FFE847"/>
<stop offset="0.17" stop-color="#FFC830"/>
<stop offset="0.3" stop-color="#FF980E"/>
<stop offset="0.36" stop-color="#FF8B16"/>
<stop offset="0.45" stop-color="#FF672A"/>
<stop offset="0.57" stop-color="#FF3647"/>
<stop offset="0.74" stop-color="#E31587"/>
</radialGradient>
<radialGradient id="paint9_radial_356_37804" cx="0" cy="0" r="1" gradientUnits="userSpaceOnUse" gradientTransform="translate(83.6205 63.8416) scale(19.1651 19.2071)">
<stop offset="0.14" stop-color="#FFF44F"/>
<stop offset="0.48" stop-color="#FF980E"/>
<stop offset="0.59" stop-color="#FF5634"/>
<stop offset="0.66" stop-color="#FF3647"/>
<stop offset="0.9" stop-color="#E31587"/>
</radialGradient>
<radialGradient id="paint10_radial_356_37804" cx="0" cy="0" r="1" gradientUnits="userSpaceOnUse" gradientTransform="translate(88.6788 64.966) scale(20.9763 21.0223)">
<stop offset="0.09" stop-color="#FFF44F"/>
<stop offset="0.23" stop-color="#FFE141"/>
<stop offset="0.51" stop-color="#FFAF1E"/>
<stop offset="0.63" stop-color="#FF980E"/>
</radialGradient>
<linearGradient id="paint11_linear_356_37804" x1="92.3021" y1="62.8613" x2="78.0387" y2="77.0937" gradientUnits="userSpaceOnUse">
<stop offset="0.17" stop-color="#FFF44F" stop-opacity="0.8"/>
<stop offset="0.27" stop-color="#FFF44F" stop-opacity="0.63"/>
<stop offset="0.49" stop-color="#FFF44F" stop-opacity="0.22"/>
<stop offset="0.6" stop-color="#FFF44F" stop-opacity="0"/>
</linearGradient>
</defs>
</svg>
