<svg width="20" height="20" viewBox="0 0 20 20" fill="none" xmlns="http://www.w3.org/2000/svg">
<path fill-rule="evenodd" clip-rule="evenodd" d="M10.3958 4.94672C10.3958 5.3229 10.0909 5.62786 9.71469 5.62786C9.33851 5.62786 9.03356 5.3229 9.03356 4.94672V0.859849C9.03356 0.483667 9.33851 0.178711 9.71469 0.178711C10.0909 0.178711 10.3958 0.483667 10.3958 0.859849V4.94672ZM7.67105 6.17544C7.99683 5.98735 8.10846 5.57077 7.92037 5.24499L5.87695 1.70565C5.68886 1.37987 5.27228 1.26825 4.94649 1.45634C4.62071 1.64443 4.50909 2.06101 4.69718 2.3868L6.7406 5.92613C6.92869 6.25191 7.34527 6.36353 7.67105 6.17544ZM5.92572 6.74101C6.25151 6.9291 6.36313 7.34569 6.17504 7.67147C5.98695 7.99726 5.57037 8.10888 5.24459 7.92079L1.70529 5.87736C1.37951 5.68927 1.26789 5.27268 1.45598 4.9469C1.64407 4.62111 2.06065 4.50949 2.38643 4.69758L5.92572 6.74101ZM5.62782 9.71467C5.62782 9.33849 5.32286 9.03353 4.94667 9.03353H0.859854C0.483669 9.03353 0.178711 9.33849 0.178711 9.71467C0.178711 10.0909 0.483668 10.3958 0.859853 10.3958H4.94667C5.32286 10.3958 5.62782 10.0909 5.62782 9.71467ZM5.24436 11.5088C5.57014 11.3207 5.98672 11.4323 6.17481 11.7581C6.3629 12.0839 6.25128 12.5005 5.9255 12.6886L2.38621 14.732C2.06042 14.9201 1.64384 14.8085 1.45575 14.4827C1.26766 14.1569 1.37928 13.7403 1.70507 13.5522L5.24436 11.5088ZM7.67123 13.2541C7.34545 13.066 6.92887 13.1777 6.74078 13.5034L4.69736 17.0428C4.50927 17.3686 4.62089 17.7851 4.94668 17.9732C5.27246 18.1613 5.68904 18.0497 5.87713 17.7239L7.92055 14.1846C8.10864 13.8588 7.99701 13.4422 7.67123 13.2541ZM9.71423 13.8015C9.33805 13.8015 9.0331 14.1065 9.0331 14.4827V18.5696C9.0331 18.9457 9.33805 19.2507 9.71423 19.2507C10.0904 19.2507 10.3954 18.9457 10.3954 18.5696V14.4827C10.3954 14.1065 10.0904 13.8015 9.71423 13.8015ZM11.7577 6.17528C12.0835 6.36337 12.5001 6.25175 12.6881 5.92596L14.7316 2.38663C14.9197 2.06085 14.808 1.64427 14.4823 1.45617C14.1565 1.26808 13.7399 1.3797 13.5518 1.70549L11.5084 5.24482C11.3203 5.5706 11.4319 5.98718 11.7577 6.17528ZM14.1838 7.92079C13.858 8.10889 13.4414 7.99726 13.2533 7.67148C13.0652 7.34569 13.1769 6.92911 13.5027 6.74102L17.0419 4.69759C17.3677 4.5095 17.7843 4.62112 17.9724 4.9469C18.1605 5.27269 18.0489 5.68927 17.7231 5.87736L14.1838 7.92079ZM13.8011 9.71473C13.8011 10.0909 14.1061 10.3959 14.4823 10.3959H18.5691C18.9453 10.3959 19.2502 10.0909 19.2502 9.71473C19.2502 9.33854 18.9453 9.03359 18.5691 9.03359H14.4823C14.1061 9.03359 13.8011 9.33854 13.8011 9.71473ZM13.5032 12.6886C13.1774 12.5005 13.0658 12.0839 13.2539 11.7581C13.442 11.4323 13.8586 11.3207 14.1843 11.5088L17.7236 13.5522C18.0494 13.7403 18.161 14.1569 17.9729 14.4827C17.7849 14.8085 17.3683 14.9201 17.0425 14.732L13.5032 12.6886ZM11.7579 13.254C11.4321 13.4421 11.3205 13.8586 11.5086 14.1844L13.552 17.7238C13.7401 18.0495 14.1566 18.1612 14.4824 17.9731C14.8082 17.785 14.9198 17.3684 14.7317 17.0426L12.6883 13.5033C12.5002 13.1775 12.0837 13.0659 11.7579 13.254Z" fill="url(#paint0_linear_376_35483)"/>
<defs>
<linearGradient id="paint0_linear_376_35483" x1="0.178712" y1="-1.8802" x2="13.975" y2="1.9673" gradientUnits="userSpaceOnUse">
<stop stop-color="#0F88FF"/>
<stop offset="1" stop-color="#D687F4"/>
</linearGradient>
</defs>
</svg>
